<?xml version="1.0" encoding="utf-8"?>
<svg viewBox="0 0 120 30" xmlns="http://www.w3.org/2000/svg">
  <rect width="120" height="30" style="fill: rgb(98, 114, 164);"/>
  <path d="M 5.252 27.016 C 4.651 27.016 4.126 26.791 3.675 26.342 C 3.225 25.891 3 25.365 3 24.765 L 3 19.398 L 5.252 19.398 L 5.252 24.765 L 24.766 24.765 L 24.766 19.398 L 27.016 19.398 L 27.016 24.765 C 27.016 25.365 26.792 25.891 26.342 26.342 C 25.891 26.791 25.366 27.016 24.766 27.016 L 5.252 27.016 Z M 15.008 21.275 L 7.766 14.032 L 9.379 12.419 L 13.882 16.922 L 13.882 3 L 16.134 3 L 16.134 16.922 L 20.638 12.419 L 22.252 14.032 L 15.008 21.275 Z" style="fill: rgb(255, 255, 255);"/>
  <text style="fill: rgb(255, 255, 255); font-family: Ubuntu; font-size: 14px; font-weight: 700; white-space: pre;" x="31.5" y="19.902">DOWNLOAD</text>
</svg>