<?xml version="1.0" encoding="utf-8"?>
<svg viewBox="0 0 120 30" xmlns="http://www.w3.org/2000/svg">
  <rect style="fill: rgb(98, 114, 164);" x="0" y="0" width="120" height="30" rx="5" ry="5"/>
  <path d="M 5.252 27.016 C 4.651 27.016 4.126 26.791 3.675 26.342 C 3.225 25.891 3 25.365 3 24.765 L 3 19.398 L 5.252 19.398 L 5.252 24.765 L 24.766 24.765 L 24.766 19.398 L 27.016 19.398 L 27.016 24.765 C 27.016 25.365 26.792 25.891 26.342 26.342 C 25.891 26.791 25.366 27.016 24.766 27.016 L 5.252 27.016 Z M 15.008 21.275 L 7.766 14.032 L 9.379 12.419 L 13.882 16.922 L 13.882 3 L 16.134 3 L 16.134 16.922 L 20.638 12.419 L 22.252 14.032 L 15.008 21.275 Z" style="fill: rgb(255, 255, 255);"/>
  <path d="M 34.804 18.124 Q 34.958 18.138 35.161 18.145 Q 35.364 18.152 35.644 18.152 Q 37.282 18.152 38.073 17.326 Q 38.864 16.5 38.864 15.044 Q 38.864 13.518 38.108 12.734 Q 37.352 11.95 35.714 11.95 Q 35.49 11.95 35.252 11.957 Q 35.014 11.964 34.804 11.992 Z M 41.118 15.044 Q 41.118 16.304 40.726 17.242 Q 40.334 18.18 39.613 18.796 Q 38.892 19.412 37.856 19.72 Q 36.82 20.028 35.532 20.028 Q 34.944 20.028 34.16 19.979 Q 33.376 19.93 32.62 19.776 L 32.62 10.326 Q 33.376 10.186 34.195 10.137 Q 35.014 10.088 35.602 10.088 Q 36.848 10.088 37.863 10.368 Q 38.878 10.648 39.606 11.25 Q 40.334 11.852 40.726 12.79 Q 41.118 13.728 41.118 15.044 Z M 44.767 15.044 Q 44.767 15.758 44.942 16.332 Q 45.117 16.906 45.446 17.319 Q 45.775 17.732 46.251 17.956 Q 46.727 18.18 47.343 18.18 Q 47.945 18.18 48.428 17.956 Q 48.911 17.732 49.24 17.319 Q 49.569 16.906 49.744 16.332 Q 49.919 15.758 49.919 15.044 Q 49.919 14.33 49.744 13.749 Q 49.569 13.168 49.24 12.755 Q 48.911 12.342 48.428 12.118 Q 47.945 11.894 47.343 11.894 Q 46.727 11.894 46.251 12.125 Q 45.775 12.356 45.446 12.769 Q 45.117 13.182 44.942 13.763 Q 44.767 14.344 44.767 15.044 Z M 52.173 15.044 Q 52.173 16.29 51.802 17.235 Q 51.431 18.18 50.787 18.817 Q 50.143 19.454 49.254 19.776 Q 48.365 20.098 47.343 20.098 Q 46.349 20.098 45.467 19.776 Q 44.585 19.454 43.927 18.817 Q 43.269 18.18 42.891 17.235 Q 42.513 16.29 42.513 15.044 Q 42.513 13.798 42.905 12.853 Q 43.297 11.908 43.962 11.264 Q 44.627 10.62 45.502 10.298 Q 46.377 9.976 47.343 9.976 Q 48.337 9.976 49.219 10.298 Q 50.101 10.62 50.759 11.264 Q 51.417 11.908 51.795 12.853 Q 52.173 13.798 52.173 15.044 Z M 60.364 11.236 Q 60.532 11.81 60.735 12.531 Q 60.938 13.252 61.169 14.022 Q 61.4 14.792 61.638 15.562 Q 61.876 16.332 62.1 16.99 Q 62.282 16.276 62.471 15.436 Q 62.66 14.596 62.828 13.7 Q 62.996 12.804 63.157 11.915 Q 63.318 11.026 63.458 10.2 L 65.726 10.2 Q 65.236 12.636 64.599 15.142 Q 63.962 17.648 63.22 19.902 L 61.218 19.902 Q 60.728 18.558 60.266 17.081 Q 59.804 15.604 59.356 14.12 Q 58.908 15.604 58.46 17.081 Q 58.012 18.558 57.522 19.902 L 55.52 19.902 Q 54.778 17.648 54.141 15.142 Q 53.504 12.636 53.014 10.2 L 55.38 10.2 Q 55.52 11.026 55.688 11.915 Q 55.856 12.804 56.038 13.7 Q 56.22 14.596 56.409 15.436 Q 56.598 16.276 56.794 16.99 Q 57.046 16.304 57.284 15.534 Q 57.522 14.764 57.746 13.994 Q 57.97 13.224 58.159 12.51 Q 58.348 11.796 58.502 11.236 Z M 73.638 19.902 Q 72.7 18.236 71.608 16.612 Q 70.516 14.988 69.284 13.546 L 69.284 19.902 L 67.128 19.902 L 67.128 10.2 L 68.906 10.2 Q 69.368 10.662 69.928 11.334 Q 70.488 12.006 71.069 12.769 Q 71.65 13.532 72.224 14.351 Q 72.798 15.17 73.302 15.926 L 73.302 10.2 L 75.472 10.2 L 75.472 19.902 Z M 84.196 18.026 L 84.196 19.902 L 77.714 19.902 L 77.714 10.2 L 79.898 10.2 L 79.898 18.026 Z M 87.149 15.044 Q 87.149 15.758 87.324 16.332 Q 87.499 16.906 87.828 17.319 Q 88.157 17.732 88.633 17.956 Q 89.109 18.18 89.725 18.18 Q 90.327 18.18 90.81 17.956 Q 91.293 17.732 91.622 17.319 Q 91.951 16.906 92.126 16.332 Q 92.301 15.758 92.301 15.044 Q 92.301 14.33 92.126 13.749 Q 91.951 13.168 91.622 12.755 Q 91.293 12.342 90.81 12.118 Q 90.327 11.894 89.725 11.894 Q 89.109 11.894 88.633 12.125 Q 88.157 12.356 87.828 12.769 Q 87.499 13.182 87.324 13.763 Q 87.149 14.344 87.149 15.044 Z M 94.555 15.044 Q 94.555 16.29 94.184 17.235 Q 93.813 18.18 93.169 18.817 Q 92.525 19.454 91.636 19.776 Q 90.747 20.098 89.725 20.098 Q 88.731 20.098 87.849 19.776 Q 86.967 19.454 86.309 18.817 Q 85.651 18.18 85.273 17.235 Q 84.895 16.29 84.895 15.044 Q 84.895 13.798 85.287 12.853 Q 85.679 11.908 86.344 11.264 Q 87.009 10.62 87.884 10.298 Q 88.759 9.976 89.725 9.976 Q 90.719 9.976 91.601 10.298 Q 92.483 10.62 93.141 11.264 Q 93.799 11.908 94.177 12.853 Q 94.555 13.798 94.555 15.044 Z M 102.522 19.902 Q 102.368 19.398 102.179 18.866 Q 101.99 18.334 101.808 17.802 L 98.028 17.802 Q 97.846 18.334 97.657 18.866 Q 97.468 19.398 97.314 19.902 L 95.046 19.902 Q 95.592 18.334 96.082 17.004 Q 96.572 15.674 97.041 14.498 Q 97.51 13.322 97.965 12.265 Q 98.42 11.208 98.91 10.2 L 100.996 10.2 Q 101.472 11.208 101.934 12.265 Q 102.396 13.322 102.865 14.498 Q 103.334 15.674 103.824 17.004 Q 104.314 18.334 104.86 19.902 Z M 99.904 12.398 Q 99.834 12.608 99.694 12.972 Q 99.554 13.336 99.372 13.812 Q 99.19 14.288 98.973 14.862 Q 98.756 15.436 98.532 16.066 L 101.29 16.066 Q 101.066 15.436 100.856 14.862 Q 100.646 14.288 100.457 13.812 Q 100.268 13.336 100.128 12.972 Q 99.988 12.608 99.904 12.398 Z M 108.304 18.124 Q 108.458 18.138 108.661 18.145 Q 108.864 18.152 109.144 18.152 Q 110.782 18.152 111.573 17.326 Q 112.364 16.5 112.364 15.044 Q 112.364 13.518 111.608 12.734 Q 110.852 11.95 109.214 11.95 Q 108.99 11.95 108.752 11.957 Q 108.514 11.964 108.304 11.992 Z M 114.618 15.044 Q 114.618 16.304 114.226 17.242 Q 113.834 18.18 113.113 18.796 Q 112.392 19.412 111.356 19.72 Q 110.32 20.028 109.032 20.028 Q 108.444 20.028 107.66 19.979 Q 106.876 19.93 106.12 19.776 L 106.12 10.326 Q 106.876 10.186 107.695 10.137 Q 108.514 10.088 109.102 10.088 Q 110.348 10.088 111.363 10.368 Q 112.378 10.648 113.106 11.25 Q 113.834 11.852 114.226 12.79 Q 114.618 13.728 114.618 15.044 Z" style="fill: rgb(255, 255, 255); white-space: pre;"/>
</svg>