<?xml version="1.0" encoding="utf-8"?>
<svg viewBox="0 0 120 30" xmlns="http://www.w3.org/2000/svg">
  <rect style="fill: rgb(68, 71, 90);" x="0" y="0" width="120" height="30" rx="5" ry="5"/>
  <path d="M 47.462 10.088 Q 49.646 10.088 50.808 10.865 Q 51.97 11.642 51.97 13.28 Q 51.97 14.302 51.501 14.939 Q 51.032 15.576 50.15 15.94 Q 50.444 16.304 50.766 16.773 Q 51.088 17.242 51.403 17.753 Q 51.718 18.264 52.012 18.817 Q 52.306 19.37 52.558 19.902 L 50.108 19.902 Q 49.842 19.426 49.569 18.936 Q 49.296 18.446 49.009 17.984 Q 48.722 17.522 48.442 17.109 Q 48.162 16.696 47.882 16.36 L 46.804 16.36 L 46.804 19.902 L 44.62 19.902 L 44.62 10.34 Q 45.334 10.2 46.097 10.144 Q 46.86 10.088 47.462 10.088 Z M 47.588 11.95 Q 47.35 11.95 47.161 11.964 Q 46.972 11.978 46.804 11.992 L 46.804 14.624 L 47.42 14.624 Q 48.652 14.624 49.184 14.316 Q 49.716 14.008 49.716 13.266 Q 49.716 12.552 49.177 12.251 Q 48.638 11.95 47.588 11.95 Z M 53.956 19.902 L 53.956 10.2 L 60.508 10.2 L 60.508 12.034 L 56.14 12.034 L 56.14 13.938 L 60.018 13.938 L 60.018 15.73 L 56.14 15.73 L 56.14 18.068 L 60.83 18.068 L 60.83 19.902 Z M 68.936 19.902 Q 68.782 19.398 68.593 18.866 Q 68.404 18.334 68.222 17.802 L 64.442 17.802 Q 64.26 18.334 64.071 18.866 Q 63.882 19.398 63.728 19.902 L 61.46 19.902 Q 62.006 18.334 62.496 17.004 Q 62.986 15.674 63.455 14.498 Q 63.924 13.322 64.379 12.265 Q 64.834 11.208 65.324 10.2 L 67.41 10.2 Q 67.886 11.208 68.348 12.265 Q 68.81 13.322 69.279 14.498 Q 69.748 15.674 70.238 17.004 Q 70.728 18.334 71.274 19.902 Z M 66.318 12.398 Q 66.248 12.608 66.108 12.972 Q 65.968 13.336 65.786 13.812 Q 65.604 14.288 65.387 14.862 Q 65.17 15.436 64.946 16.066 L 67.704 16.066 Q 67.48 15.436 67.27 14.862 Q 67.06 14.288 66.871 13.812 Q 66.682 13.336 66.542 12.972 Q 66.402 12.608 66.318 12.398 Z M 74.718 18.124 Q 74.872 18.138 75.075 18.145 Q 75.278 18.152 75.558 18.152 Q 77.196 18.152 77.987 17.326 Q 78.778 16.5 78.778 15.044 Q 78.778 13.518 78.022 12.734 Q 77.266 11.95 75.628 11.95 Q 75.404 11.95 75.166 11.957 Q 74.928 11.964 74.718 11.992 Z M 81.032 15.044 Q 81.032 16.304 80.64 17.242 Q 80.248 18.18 79.527 18.796 Q 78.806 19.412 77.77 19.72 Q 76.734 20.028 75.446 20.028 Q 74.858 20.028 74.074 19.979 Q 73.29 19.93 72.534 19.776 L 72.534 10.326 Q 73.29 10.186 74.109 10.137 Q 74.928 10.088 75.516 10.088 Q 76.762 10.088 77.777 10.368 Q 78.792 10.648 79.52 11.25 Q 80.248 11.852 80.64 12.79 Q 81.032 13.728 81.032 15.044 Z M 85.423 10.2 Q 85.675 10.662 86.004 11.341 Q 86.333 12.02 86.69 12.811 Q 87.047 13.602 87.397 14.428 Q 87.747 15.254 88.055 15.982 Q 88.363 15.254 88.713 14.428 Q 89.063 13.602 89.42 12.811 Q 89.777 12.02 90.106 11.341 Q 90.435 10.662 90.687 10.2 L 92.675 10.2 Q 92.815 11.166 92.934 12.363 Q 93.053 13.56 93.144 14.855 Q 93.235 16.15 93.312 17.452 Q 93.389 18.754 93.445 19.902 L 91.317 19.902 Q 91.275 18.488 91.205 16.822 Q 91.135 15.156 90.995 13.462 Q 90.743 14.05 90.435 14.764 Q 90.127 15.478 89.826 16.192 Q 89.525 16.906 89.245 17.557 Q 88.965 18.208 88.769 18.67 L 87.243 18.67 Q 87.047 18.208 86.767 17.557 Q 86.487 16.906 86.186 16.192 Q 85.885 15.478 85.577 14.764 Q 85.269 14.05 85.017 13.462 Q 84.877 15.156 84.807 16.822 Q 84.737 18.488 84.695 19.902 L 82.567 19.902 Q 82.623 18.754 82.7 17.452 Q 82.777 16.15 82.868 14.855 Q 82.959 13.56 83.078 12.363 Q 83.197 11.166 83.337 10.2 Z M 95.409 19.902 L 95.409 10.2 L 101.961 10.2 L 101.961 12.034 L 97.593 12.034 L 97.593 13.938 L 101.471 13.938 L 101.471 15.73 L 97.593 15.73 L 97.593 18.068 L 102.283 18.068 L 102.283 19.902 Z" style="fill: rgb(255, 255, 255); white-space: pre;"/>
  <path d="M 17.182 13.163 L 17.182 11.855 C 17.782 11.601 18.395 11.41 19.022 11.282 C 19.65 11.155 20.309 11.091 21 11.091 C 21.472 11.091 21.936 11.128 22.391 11.2 C 22.845 11.272 23.291 11.364 23.727 11.473 L 23.727 12.673 C 23.291 12.509 22.85 12.386 22.405 12.304 C 21.959 12.223 21.491 12.182 21 12.182 C 20.309 12.182 19.645 12.269 19.009 12.441 C 18.373 12.614 17.763 12.855 17.182 13.163 Z M 17.182 19.163 L 17.182 17.827 C 17.782 17.582 18.395 17.398 19.022 17.275 C 19.65 17.152 20.309 17.091 21 17.091 C 21.472 17.091 21.936 17.128 22.391 17.2 C 22.845 17.272 23.291 17.363 23.727 17.473 L 23.727 18.672 C 23.291 18.509 22.85 18.386 22.405 18.304 C 21.959 18.222 21.491 18.181 21 18.181 C 20.309 18.181 19.645 18.264 19.009 18.427 C 18.373 18.59 17.763 18.837 17.182 19.163 Z M 17.182 16.164 L 17.182 14.855 C 17.782 14.6 18.395 14.409 19.022 14.282 C 19.65 14.154 20.309 14.091 21 14.091 C 21.472 14.091 21.936 14.127 22.391 14.201 C 22.845 14.273 23.291 14.364 23.727 14.473 L 23.727 15.673 C 23.291 15.509 22.85 15.387 22.405 15.305 C 21.959 15.223 21.491 15.182 21 15.182 C 20.309 15.182 19.645 15.268 19.009 15.441 C 18.373 15.614 17.763 15.854 17.182 16.164 Z M 8.673 20.637 C 9.647 20.637 10.595 20.75 11.517 20.977 C 12.438 21.205 13.346 21.546 14.236 22 L 14.236 10.355 C 13.418 9.81 12.531 9.386 11.574 9.086 C 10.618 8.786 9.651 8.636 8.673 8.636 C 7.981 8.636 7.304 8.723 6.641 8.895 C 5.977 9.068 5.309 9.282 4.636 9.537 L 4.636 21.373 C 5.2 21.118 5.841 20.932 6.559 20.814 C 7.278 20.695 7.981 20.637 8.673 20.637 Z M 15.873 22 C 16.781 21.546 17.673 21.205 18.545 20.977 C 19.418 20.75 20.346 20.637 21.327 20.637 C 22.018 20.637 22.732 20.691 23.468 20.8 C 24.204 20.909 24.836 21.055 25.363 21.236 L 25.363 9.537 C 24.745 9.227 24.092 9 23.405 8.855 C 22.717 8.709 22.025 8.636 21.327 8.636 C 20.346 8.636 19.396 8.786 18.477 9.086 C 17.559 9.386 16.691 9.81 15.873 10.355 L 15.873 22 Z M 15.055 24.455 C 14.127 23.764 13.118 23.232 12.027 22.859 C 10.937 22.486 9.818 22.3 8.673 22.3 C 8.009 22.3 7.356 22.382 6.716 22.545 C 6.075 22.709 5.436 22.909 4.8 23.145 C 4.38 23.345 3.975 23.318 3.585 23.063 C 3.195 22.809 3 22.446 3 21.973 L 3 9.346 C 3 9.073 3.064 8.823 3.191 8.595 C 3.318 8.369 3.509 8.191 3.763 8.063 C 4.527 7.699 5.322 7.432 6.147 7.259 C 6.973 7.086 7.815 7 8.673 7 C 9.818 7 10.933 7.155 12.014 7.464 C 13.095 7.773 14.109 8.246 15.055 8.881 C 15.982 8.246 16.977 7.773 18.041 7.464 C 19.105 7.155 20.2 7 21.327 7 C 22.179 7 23.015 7.086 23.835 7.259 C 24.654 7.432 25.445 7.699 26.209 8.063 C 26.463 8.191 26.659 8.369 26.796 8.595 C 26.932 8.823 27 9.073 27 9.346 L 27 21.973 C 27 22.48 26.796 22.865 26.386 23.13 C 25.977 23.395 25.573 23.4 25.172 23.145 C 24.554 22.89 23.925 22.686 23.284 22.532 C 22.644 22.377 21.991 22.3 21.327 22.3 C 20.182 22.3 19.081 22.491 18.027 22.872 C 16.972 23.254 15.982 23.782 15.055 24.455 Z M 9.436 15.482 Z" style="fill: rgb(255, 255, 255);"/>
</svg>